<?xml version="1.0" standalone="no"?>
<!DOCTYPE svg PUBLIC "-//W3C//DTD SVG 20010904//EN"
 "http://www.w3.org/TR/2001/REC-SVG-20010904/DTD/svg10.dtd">
<svg version="1.0" xmlns="http://www.w3.org/2000/svg"
 width="479.000000pt" height="479.000000pt" viewBox="0 0 479.000000 479.000000"
 preserveAspectRatio="xMidYMid meet">
<metadata>
Created by potrace 1.14, written by Peter Selinger 2001-2017
</metadata>
<g transform="translate(0.000000,479.000000) scale(0.100000,-0.100000)"
fill="#000000" stroke="none">
<path d="M2207 4514 c-2 -2 -30 -6 -63 -9 -32 -2 -59 -5 -59 -6 0 0 -11 -2
-25 -4 -14 -2 -37 -6 -52 -9 -16 -3 -39 -8 -53 -10 -13 -3 -28 -7 -33 -10 -10
-6 -68 -18 -97 -20 -11 0 -22 -4 -25 -7 -3 -3 -30 -13 -60 -23 -30 -9 -64 -21
-75 -26 -25 -12 -78 -31 -85 -31 -3 0 -15 -7 -27 -15 -13 -8 -23 -11 -23 -7 0
5 -4 4 -8 -2 -4 -5 -29 -21 -57 -33 -27 -13 -87 -46 -132 -73 -45 -27 -87 -49
-93 -49 -5 0 -10 -4 -10 -8 0 -4 -13 -15 -29 -25 -134 -79 -424 -366 -517
-512 -10 -16 -22 -34 -27 -40 -71 -92 -247 -450 -247 -502 0 -8 -3 -12 -7 -10
-5 3 -8 -8 -9 -23 -1 -15 -5 -36 -9 -46 -22 -51 -72 -312 -78 -409 -1 -16 -6
-36 -11 -44 -7 -10 -6 -12 4 -6 10 6 12 4 6 -11 -8 -20 -9 -196 -1 -252 3 -24
1 -31 -8 -25 -9 5 -9 3 -1 -8 7 -8 15 -42 18 -77 4 -34 11 -86 17 -115 5 -29
12 -63 14 -77 7 -39 13 -62 24 -99 6 -19 8 -38 5 -42 -3 -5 0 -9 5 -9 6 0 11
-8 11 -17 0 -10 20 -71 45 -136 25 -66 42 -124 38 -130 -3 -5 -1 -7 4 -4 10 6
37 -43 33 -59 -1 -4 2 -10 7 -13 17 -11 82 -139 75 -146 -4 -5 -1 -5 6 -1 6 4
12 3 12 -2 0 -10 58 -100 77 -120 7 -8 10 -19 6 -25 -3 -7 -3 -9 2 -5 4 4 21
-12 38 -35 43 -59 58 -77 182 -201 60 -61 108 -115 106 -121 -1 -5 1 -7 4 -3
4 4 44 -21 89 -56 82 -63 163 -117 226 -152 19 -10 37 -21 40 -24 3 -3 24 -14
48 -24 23 -11 42 -23 42 -28 0 -4 3 -7 8 -5 12 4 102 -36 102 -46 0 -4 4 -6 9
-3 5 3 34 -5 65 -19 31 -14 56 -23 56 -20 0 2 17 -3 37 -11 20 -9 44 -17 52
-19 9 -2 41 -10 71 -18 30 -8 87 -21 125 -28 39 -7 72 -16 75 -19 3 -3 21 -5
40 -6 19 0 76 -4 125 -8 106 -9 258 -8 282 1 12 5 14 3 8 -8 -7 -11 -6 -12 6
-3 8 6 34 12 59 13 25 1 59 5 75 7 33 6 46 8 120 19 28 4 58 11 68 16 9 6 17
8 17 5 0 -2 21 2 46 10 26 7 50 11 55 8 5 -3 9 -1 9 4 0 5 15 13 33 17 17 4
34 9 37 10 86 33 120 44 120 37 0 -4 4 -2 8 4 4 5 39 23 77 39 39 16 96 44
128 62 33 18 64 30 70 26 5 -3 7 -2 4 4 -6 9 73 61 82 54 2 -1 7 1 10 6 16 23
92 74 101 68 6 -4 9 -2 8 2 -4 12 118 114 126 106 3 -4 6 -1 6 5 0 14 100 108
111 105 5 -2 8 1 6 5 -2 8 33 53 105 135 42 47 68 79 68 82 0 2 24 39 54 82
101 148 209 372 256 533 12 41 26 85 31 98 5 13 9 34 9 47 0 13 5 27 10 30 6
4 8 10 6 14 -2 3 2 36 9 71 8 36 17 92 21 125 11 83 10 416 0 495 -5 36 -10
80 -10 97 -1 18 -4 33 -8 33 -5 0 -8 9 -8 21 0 11 -9 56 -20 99 -11 43 -21 90
-22 104 -1 14 -5 26 -9 26 -4 0 -12 21 -19 47 -6 26 -16 53 -21 59 -5 6 -10
19 -12 30 -2 10 -15 42 -28 69 -13 28 -23 52 -24 55 -1 9 -60 125 -66 130 -17
15 -68 118 -61 125 4 5 1 5 -5 1 -7 -4 -13 -3 -13 2 0 5 -29 47 -64 95 -35 47
-61 89 -58 93 4 4 1 4 -5 0 -7 -4 -13 -3 -13 3 0 16 -217 231 -300 298 -85 68
-169 125 -253 172 -33 19 -54 37 -51 43 4 7 2 8 -4 4 -16 -10 -83 23 -75 37 3
5 1 7 -4 4 -10 -6 -63 13 -188 68 -30 13 -131 47 -150 51 -6 1 -44 11 -85 22
-41 11 -93 23 -115 27 -39 6 -54 9 -145 21 -52 8 -426 14 -433 8z"/>
</g>
</svg>
