<svg xmlns="http://www.w3.org/2000/svg" width="205.428" height="88.022" viewBox="0 0 205.428 88.022"><g transform="translate(0)"><path d="M205.428,76.612a11.411,11.411,0,0,1-11.411,11.411H11.411A11.411,11.411,0,0,1,0,76.612v-65.2A11.411,11.411,0,0,1,11.411,0H194.017a11.411,11.411,0,0,1,11.411,11.411Z" transform="translate(0 0)" fill="#44b78b"/><g transform="translate(14.46 13.823)"><path d="M56.454,33.919h9.728v45.03a64.174,64.174,0,0,1-12.634,1.326c-11.876,0-18.067-5.369-18.067-15.666,0-9.917,6.57-16.361,16.74-16.361a15.582,15.582,0,0,1,4.233.5V33.919Zm0,22.666a9.664,9.664,0,0,0-3.285-.5c-4.927,0-7.77,3.032-7.77,8.338,0,5.181,2.717,8.023,7.707,8.023a22.758,22.758,0,0,0,3.348-.252v-15.6Z" transform="translate(-35.482 -33.919)" fill="#fff"/><path d="M120.781,49.017V71.57c0,7.769-.568,11.5-2.274,14.718-1.58,3.1-3.664,5.053-7.96,7.2l-9.034-4.3c4.3-2.021,6.38-3.789,7.707-6.507,1.39-2.779,1.833-6,1.833-14.466v-19.2Zm-9.728-14.971h9.728v9.981h-9.728Z" transform="translate(-74.605 -33.994)" fill="#fff"/><path d="M160.273,71.985a29.259,29.259,0,0,1,12.887-2.906c4.991,0,8.275,1.326,9.728,3.917.821,1.452,1.073,3.347,1.073,7.391v19.772a106.91,106.91,0,0,1-13.9,1.074c-8.149,0-11.813-2.843-11.813-9.159,0-6.824,4.864-9.981,16.8-10.993V78.932c0-1.768-.884-2.4-3.348-2.4A25.475,25.475,0,0,0,160.272,79.5V71.985ZM175.5,87.462c-6.444.632-8.528,1.643-8.528,4.169,0,1.895,1.2,2.78,3.854,2.78a26.917,26.917,0,0,0,4.675-.442Z" transform="translate(-108.22 -54.751)" fill="#fff"/><path d="M232.968,71.29a58.311,58.311,0,0,1,15.287-2.211c4.991,0,8.591,1.136,10.74,3.348,2.021,2.084,2.653,4.358,2.653,9.223v19.077h-9.728v-18.7c0-3.727-1.263-5.117-4.737-5.117a14.658,14.658,0,0,0-4.486.7v23.12h-9.728V71.29Z" transform="translate(-152.488 -54.751)" fill="#fff"/><path d="M311.52,106.126a22.151,22.151,0,0,0,10.423,2.589c6.38,0,9.1-2.589,9.1-8.78v-.19a13.3,13.3,0,0,1-6.317,1.327c-8.528,0-13.962-5.623-13.962-14.529,0-11.055,8.023-17.309,22.236-17.309a61.463,61.463,0,0,1,12.7,1.388l-3.331,7.018c-2.59-.506-.207-.068-2.165-.258v1.011l.126,4.105.063,5.307c.063,1.326.063,2.653.127,3.979v2.654c0,8.339-.695,12.255-2.779,15.476-3.032,4.738-8.276,7.075-15.73,7.075a27.83,27.83,0,0,1-10.486-1.9v-8.97Zm19.33-29.059H329.84a10.63,10.63,0,0,0-5.622,1.389c-2.337,1.327-3.538,3.727-3.538,7.139,0,4.865,2.4,7.643,6.7,7.643a12.06,12.06,0,0,0,3.664-.632V89.259c0-1.137-.063-2.4-.063-3.727l-.063-4.485-.064-3.221v-.758Z" transform="translate(-198.579 -54.842)" fill="#fff"/><path d="M410.123,68.77c9.728,0,15.666,6.128,15.666,16.045,0,10.171-6.19,16.551-16.045,16.551-9.729,0-15.73-6.128-15.73-15.981C394.014,75.149,400.205,68.77,410.123,68.77Zm-.19,24.762c3.728,0,5.939-3.1,5.939-8.465,0-5.306-2.148-8.465-5.874-8.465-3.854,0-6.066,3.1-6.066,8.465S406.143,93.532,409.933,93.532Z" transform="translate(-247.904 -54.567)" fill="#fff"/></g></g></svg>