<svg xmlns="http://www.w3.org/2000/svg" width="178.548" height="96.994" viewBox="0 0 178.548 96.994"><path d="M178.548,84.42c0,6.944-4.44,12.574-9.918,12.574H9.918C4.44,96.994,0,91.365,0,84.42V12.574C0,5.629,4.44,0,9.918,0H168.631c5.477,0,9.918,5.629,9.918,12.574Z" transform="translate(0)" fill="#44b78b"/><g transform="translate(12.568 15.232)"><path d="M53.71,33.919h8.455V83.538A44.478,44.478,0,0,1,51.185,85c-10.322,0-15.7-5.916-15.7-17.263,0-10.928,5.71-18.028,14.55-18.028a10.85,10.85,0,0,1,3.679.556V33.919Zm0,24.977a6.793,6.793,0,0,0-2.855-.556c-4.283,0-6.754,3.341-6.754,9.188,0,5.709,2.361,8.841,6.7,8.841a15.69,15.69,0,0,0,2.91-.278V58.9Z" transform="translate(-35.482 -33.919)" fill="#fff"/><path d="M118.26,50.543V75.394c0,8.561-.494,12.668-1.976,16.219-1.373,3.411-3.185,5.568-6.918,7.935l-7.852-4.734c3.734-2.227,5.545-4.175,6.7-7.17,1.208-3.062,1.593-6.613,1.593-15.941V50.543Zm-8.455-16.5h8.455v11h-8.455Z" transform="translate(-78.126 -33.989)" fill="#fff"/><path d="M160.008,72.281a21.076,21.076,0,0,1,11.2-3.2c4.338,0,7.192,1.462,8.455,4.316.713,1.6.933,3.689.933,8.145v21.787a73.731,73.731,0,0,1-12.079,1.184c-7.083,0-10.268-3.133-10.268-10.093,0-7.519,4.228-11,14.605-12.113V79.937c0-1.948-.769-2.644-2.91-2.644a18.573,18.573,0,0,0-9.938,3.271V72.281ZM173.24,89.335c-5.6.7-7.412,1.81-7.412,4.594,0,2.088,1.043,3.063,3.349,3.063a18.616,18.616,0,0,0,4.063-.487Z" transform="translate(-114.766 -53.29)" fill="#fff"/><path d="M232.968,71.516a40.8,40.8,0,0,1,13.287-2.437c4.338,0,7.467,1.252,9.335,3.689,1.757,2.3,2.305,4.8,2.305,10.163v21.022H249.44v-20.6c0-4.107-1.1-5.639-4.118-5.639a10.282,10.282,0,0,0-3.9.766v25.477h-8.455V71.516Z" transform="translate(-163.019 -53.29)" fill="#fff"/><path d="M311.421,109.886a16.1,16.1,0,0,0,9.059,2.853c5.545,0,7.906-2.853,7.906-9.675v-.21a9.557,9.557,0,0,1-5.49,1.463c-7.412,0-12.135-6.2-12.135-16.01,0-12.182,6.973-19.073,19.327-19.073a42.648,42.648,0,0,1,11.036,1.53l-2.9,7.734c-2.251-.557-.18-.075-1.882-.284v1.114l.109,4.524.055,5.848c.055,1.461.055,2.923.11,4.385v2.924c0,9.189-.6,13.5-2.416,17.054-2.636,5.221-7.193,7.8-13.671,7.8a19.733,19.733,0,0,1-9.114-2.089v-9.884Zm16.8-32.021h-.878a7.747,7.747,0,0,0-4.887,1.531c-2.031,1.463-3.075,4.107-3.075,7.867,0,5.36,2.087,8.423,5.82,8.423a8.514,8.514,0,0,0,3.184-.7V91.3c0-1.253-.055-2.646-.055-4.107l-.055-4.942-.055-3.55v-.836Z" transform="translate(-213.257 -53.375)" fill="#fff"/><path d="M408.015,68.77c8.455,0,13.616,6.752,13.616,17.68,0,11.207-5.38,18.238-13.946,18.238-8.456,0-13.672-6.752-13.672-17.61C394.014,75.8,399.4,68.77,408.015,68.77Zm-.165,27.286c3.24,0,5.162-3.411,5.162-9.328,0-5.846-1.867-9.327-5.106-9.327-3.35,0-5.272,3.412-5.272,9.327S404.556,96.056,407.85,96.056Z" transform="translate(-267.022 -53.12)" fill="#fff"/></g></svg>