<svg xmlns="http://www.w3.org/2000/svg" xmlns:xlink="http://www.w3.org/1999/xlink" width="116" height="116" viewBox="0 0 116 116"><defs><filter id="a" x="0" y="0" width="116" height="116" filterUnits="userSpaceOnUse"><feOffset dy="3" input="SourceAlpha"/><feGaussianBlur stdDeviation="3" result="b"/><feFlood flood-opacity="0.161"/><feComposite operator="in" in2="b"/><feComposite in="SourceGraphic"/></filter></defs><g transform="translate(-1160 -1245)"><g transform="matrix(1, 0, 0, 1, 1160, 1245)" filter="url(#a)"><path d="M49,0A49,49,0,1,1,0,49,49,49,0,0,1,49,0Z" transform="translate(9 6)" fill="#fff"/></g><g transform="translate(1122.212 1266.69)"><g transform="translate(72.145)"><g transform="translate(0)"><path d="M116.419,25.092A12.986,12.986,0,0,0,105.794,5.217,12.219,12.219,0,0,0,84.745,6.973a17.716,17.716,0,0,0-8.437,28.371c-.027.376-.04.737-.04,1.1a15.506,15.506,0,0,0,15.4,15.578,15.271,15.271,0,0,0,1.771-.1l-.627,12.754H91.665a.976.976,0,0,0,0,1.952h10.308a.976.976,0,0,0,0-1.952h-1.144l-.746-15.258a15.239,15.239,0,0,0,3.952.521,15.62,15.62,0,0,0,12.384-24.839ZM94.74,64.668l.891-18.13a8.034,8.034,0,0,0,2.35-.618L98.9,64.668Zm9.295-16.689a13.308,13.308,0,0,1-4.052-.63l-.126-2.571a8.355,8.355,0,0,0,.744-.678.984.984,0,0,0-.014-1.38.957.957,0,0,0-1.364.014,6.2,6.2,0,0,1-7.147,1.289.96.96,0,0,0-1.285.462.981.981,0,0,0,.457,1.3,8.014,8.014,0,0,0,2.454.728l-.168,3.418a13.369,13.369,0,0,1-1.868.133A13.563,13.563,0,0,1,78.2,36.439c0-.427.022-.862.067-1.33a.983.983,0,0,0-.24-.744,15.764,15.764,0,0,1,5.852-25.03,12.461,12.461,0,0,0-.341,1.984.973.973,0,0,0,.874,1.06c.029,0,.059,0,.088,0a.969.969,0,0,0,.959-.888,10.585,10.585,0,0,1,.817-3.228c.013-.025.027-.049.038-.075a10.307,10.307,0,0,1,18.174-1.453.959.959,0,0,0,.832.444c.058,0,.116-.005.173-.009.03,0,.06-.005.091-.005A11.03,11.03,0,0,1,115.1,23.522q-.145-.151-.294-.3a.956.956,0,0,0-1.364.014.984.984,0,0,0,.014,1.38,13.661,13.661,0,0,1-9.422,23.363Z" transform="translate(-72.145)" fill="#f9852b"/></g></g><g transform="translate(81.123 26.611)"><g transform="translate(0)"><path d="M155.6,218.663a9.189,9.189,0,0,1-9.179-9.179,1.065,1.065,0,0,0-2.13,0A11.321,11.321,0,0,0,155.6,220.792a1.065,1.065,0,0,0,0-2.13Z" transform="translate(-144.291 -208.419)" fill="#f9852b"/></g></g><g transform="translate(103.412 10.297)"><path d="M321.71,80.161a1.065,1.065,0,1,0,0,2.13,5.771,5.771,0,0,1,5.764,5.764,1.065,1.065,0,1,0,2.13,0A7.9,7.9,0,0,0,321.71,80.161Z" transform="translate(-320.645 -80.161)" fill="#f9852b"/></g></g></g></svg>