<svg xmlns="http://www.w3.org/2000/svg" xmlns:xlink="http://www.w3.org/1999/xlink" width="1465" height="609" viewBox="0 0 1465 609"><defs><clipPath id="a"><rect width="1465" height="609" transform="translate(195 136)" fill="#fff" stroke="#707070" stroke-width="1"/></clipPath><clipPath id="b"><rect width="2047.104" height="2149.178" fill="none"/></clipPath></defs><g transform="translate(-195 -136)" clip-path="url(#a)"><g transform="translate(857.217 -796.584) rotate(45)" clip-path="url(#b)"><g transform="translate(-36.995 -534.5)"><line x2="1846" y2="9" transform="translate(37 535.5)" fill="none" stroke="#ffed00" stroke-width="2"/></g><g transform="translate(1830.005 -534.5)"><line x2="1846" y2="9" transform="translate(37 535.5)" fill="none" stroke="#ffed00" stroke-width="2"/></g><g transform="translate(-36.995 -500.5)"><line x2="1846" y2="9" transform="translate(37 535.5)" fill="none" stroke="#ffed00" stroke-width="2"/></g><g transform="translate(1830.005 -500.5)"><line x2="1846" y2="9" transform="translate(37 535.5)" fill="none" stroke="#ffed00" stroke-width="2"/></g><g transform="translate(-36.995 -466.5)"><line x2="1846" y2="9" transform="translate(37 535.5)" fill="none" stroke="#ffed00" stroke-width="2"/></g><g transform="translate(1830.005 -466.5)"><line x2="1846" y2="9" transform="translate(37 535.5)" fill="none" stroke="#ffed00" stroke-width="2"/></g><g transform="translate(-36.995 -432.5)"><line x2="1846" y2="9" transform="translate(37 535.5)" fill="none" stroke="#ffed00" stroke-width="2"/></g><g transform="translate(1830.005 -432.5)"><line x2="1846" y2="9" transform="translate(37 535.5)" fill="none" stroke="#ffed00" stroke-width="2"/></g><g transform="translate(-36.995 -398.5)"><line x2="1846" y2="9" transform="translate(37 535.5)" fill="none" stroke="#ffed00" stroke-width="2"/></g><g transform="translate(1830.005 -398.5)"><line x2="1846" y2="9" transform="translate(37 535.5)" fill="none" stroke="#ffed00" stroke-width="2"/></g><g transform="translate(-36.995 -364.5)"><line x2="1846" y2="9" transform="translate(37 535.5)" fill="none" stroke="#ffed00" stroke-width="2"/></g><g transform="translate(1830.005 -364.5)"><line x2="1846" y2="9" transform="translate(37 535.5)" fill="none" stroke="#ffed00" stroke-width="2"/></g><g transform="translate(-36.995 -330.5)"><line x2="1846" y2="9" transform="translate(37 535.5)" fill="none" stroke="#ffed00" stroke-width="2"/></g><g transform="translate(1830.005 -330.5)"><line x2="1846" y2="9" transform="translate(37 535.5)" fill="none" stroke="#ffed00" stroke-width="2"/></g><g transform="translate(-36.995 -296.5)"><line x2="1846" y2="9" transform="translate(37 535.5)" fill="none" stroke="#ffed00" stroke-width="2"/></g><g transform="translate(1830.005 -296.5)"><line x2="1846" y2="9" transform="translate(37 535.5)" fill="none" stroke="#ffed00" stroke-width="2"/></g><g transform="translate(-36.995 -262.5)"><line x2="1846" y2="9" transform="translate(37 535.5)" fill="none" stroke="#ffed00" stroke-width="2"/></g><g transform="translate(1830.005 -262.5)"><line x2="1846" y2="9" transform="translate(37 535.5)" fill="none" stroke="#ffed00" stroke-width="2"/></g><g transform="translate(-36.995 -228.5)"><line x2="1846" y2="9" transform="translate(37 535.5)" fill="none" stroke="#ffed00" stroke-width="2"/></g><g transform="translate(1830.005 -228.5)"><line x2="1846" y2="9" transform="translate(37 535.5)" fill="none" stroke="#ffed00" stroke-width="2"/></g><g transform="translate(-36.995 -194.5)"><line x2="1846" y2="9" transform="translate(37 535.5)" fill="none" stroke="#ffed00" stroke-width="2"/></g><g transform="translate(1830.005 -194.5)"><line x2="1846" y2="9" transform="translate(37 535.5)" fill="none" stroke="#ffed00" stroke-width="2"/></g><g transform="translate(-36.995 -160.5)"><line x2="1846" y2="9" transform="translate(37 535.5)" fill="none" stroke="#ffed00" stroke-width="2"/></g><g transform="translate(1830.005 -160.5)"><line x2="1846" y2="9" transform="translate(37 535.5)" fill="none" stroke="#ffed00" stroke-width="2"/></g><g transform="translate(-36.995 -126.5)"><line x2="1846" y2="9" transform="translate(37 535.5)" fill="none" stroke="#ffed00" stroke-width="2"/></g><g transform="translate(1830.005 -126.5)"><line x2="1846" y2="9" transform="translate(37 535.5)" fill="none" stroke="#ffed00" stroke-width="2"/></g><g transform="translate(-36.995 -92.5)"><line x2="1846" y2="9" transform="translate(37 535.5)" fill="none" stroke="#ffed00" stroke-width="2"/></g><g transform="translate(1830.005 -92.5)"><line x2="1846" y2="9" transform="translate(37 535.5)" fill="none" stroke="#ffed00" stroke-width="2"/></g><g transform="translate(-36.995 -58.5)"><line x2="1846" y2="9" transform="translate(37 535.5)" fill="none" stroke="#ffed00" stroke-width="2"/></g><g transform="translate(1830.005 -58.5)"><line x2="1846" y2="9" transform="translate(37 535.5)" fill="none" stroke="#ffed00" stroke-width="2"/></g><g transform="translate(-36.995 -24.5)"><line x2="1846" y2="9" transform="translate(37 535.5)" fill="none" stroke="#ffed00" stroke-width="2"/></g><g transform="translate(1830.005 -24.5)"><line x2="1846" y2="9" transform="translate(37 535.5)" fill="none" stroke="#ffed00" stroke-width="2"/></g><g transform="translate(-36.995 9.5)"><line x2="1846" y2="9" transform="translate(37 535.5)" fill="none" stroke="#ffed00" stroke-width="2"/></g><g transform="translate(1830.005 9.5)"><line x2="1846" y2="9" transform="translate(37 535.5)" fill="none" stroke="#ffed00" stroke-width="2"/></g><g transform="translate(-36.995 43.5)"><line x2="1846" y2="9" transform="translate(37 535.5)" fill="none" stroke="#ffed00" stroke-width="2"/></g><g transform="translate(1830.005 43.5)"><line x2="1846" y2="9" transform="translate(37 535.5)" fill="none" stroke="#ffed00" stroke-width="2"/></g><g transform="translate(-36.995 77.5)"><line x2="1846" y2="9" transform="translate(37 535.5)" fill="none" stroke="#ffed00" stroke-width="2"/></g><g transform="translate(1830.005 77.5)"><line x2="1846" y2="9" transform="translate(37 535.5)" fill="none" stroke="#ffed00" stroke-width="2"/></g><g transform="translate(-36.995 111.5)"><line x2="1846" y2="9" transform="translate(37 535.5)" fill="none" stroke="#ffed00" stroke-width="2"/></g><g transform="translate(1830.005 111.5)"><line x2="1846" y2="9" transform="translate(37 535.5)" fill="none" stroke="#ffed00" stroke-width="2"/></g><g transform="translate(-36.995 145.5)"><line x2="1846" y2="9" transform="translate(37 535.5)" fill="none" stroke="#ffed00" stroke-width="2"/></g><g transform="translate(1830.005 145.5)"><line x2="1846" y2="9" transform="translate(37 535.5)" fill="none" stroke="#ffed00" stroke-width="2"/></g><g transform="translate(-36.995 179.5)"><line x2="1846" y2="9" transform="translate(37 535.5)" fill="none" stroke="#ffed00" stroke-width="2"/></g><g transform="translate(1830.005 179.5)"><line x2="1846" y2="9" transform="translate(37 535.5)" fill="none" stroke="#ffed00" stroke-width="2"/></g><g transform="translate(-36.995 213.5)"><line x2="1846" y2="9" transform="translate(37 535.5)" fill="none" stroke="#ffed00" stroke-width="2"/></g><g transform="translate(1830.005 213.5)"><line x2="1846" y2="9" transform="translate(37 535.5)" fill="none" stroke="#ffed00" stroke-width="2"/></g><g transform="translate(-36.995 247.5)"><line x2="1846" y2="9" transform="translate(37 535.5)" fill="none" stroke="#ffed00" stroke-width="2"/></g><g transform="translate(1830.005 247.5)"><line x2="1846" y2="9" transform="translate(37 535.5)" fill="none" stroke="#ffed00" stroke-width="2"/></g><g transform="translate(-36.995 281.5)"><line x2="1846" y2="9" transform="translate(37 535.5)" fill="none" stroke="#ffed00" stroke-width="2"/></g><g transform="translate(1830.005 281.5)"><line x2="1846" y2="9" transform="translate(37 535.5)" fill="none" stroke="#ffed00" stroke-width="2"/></g><g transform="translate(-36.995 315.5)"><line x2="1846" y2="9" transform="translate(37 535.5)" fill="none" stroke="#ffed00" stroke-width="2"/></g><g transform="translate(1830.005 315.5)"><line x2="1846" y2="9" transform="translate(37 535.5)" fill="none" stroke="#ffed00" stroke-width="2"/></g><g transform="translate(-36.995 349.5)"><line x2="1846" y2="9" transform="translate(37 535.5)" fill="none" stroke="#ffed00" stroke-width="2"/></g><g transform="translate(1830.005 349.5)"><line x2="1846" y2="9" transform="translate(37 535.5)" fill="none" stroke="#ffed00" stroke-width="2"/></g><g transform="translate(-36.995 383.5)"><line x2="1846" y2="9" transform="translate(37 535.5)" fill="none" stroke="#ffed00" stroke-width="2"/></g><g transform="translate(1830.005 383.5)"><line x2="1846" y2="9" transform="translate(37 535.5)" fill="none" stroke="#ffed00" stroke-width="2"/></g><g transform="translate(-36.995 417.5)"><line x2="1846" y2="9" transform="translate(37 535.5)" fill="none" stroke="#ffed00" stroke-width="2"/></g><g transform="translate(1830.005 417.5)"><line x2="1846" y2="9" transform="translate(37 535.5)" fill="none" stroke="#ffed00" stroke-width="2"/></g><g transform="translate(-36.995 451.5)"><line x2="1846" y2="9" transform="translate(37 535.5)" fill="none" stroke="#ffed00" stroke-width="2"/></g><g transform="translate(1830.005 451.5)"><line x2="1846" y2="9" transform="translate(37 535.5)" fill="none" stroke="#ffed00" stroke-width="2"/></g><g transform="translate(-36.995 485.5)"><line x2="1846" y2="9" transform="translate(37 535.5)" fill="none" stroke="#ffed00" stroke-width="2"/></g><g transform="translate(1830.005 485.5)"><line x2="1846" y2="9" transform="translate(37 535.5)" fill="none" stroke="#ffed00" stroke-width="2"/></g><g transform="translate(-36.995 519.5)"><line x2="1846" y2="9" transform="translate(37 535.5)" fill="none" stroke="#ffed00" stroke-width="2"/></g><g transform="translate(1830.005 519.5)"><line x2="1846" y2="9" transform="translate(37 535.5)" fill="none" stroke="#ffed00" stroke-width="2"/></g><g transform="translate(-36.995 553.5)"><line x2="1846" y2="9" transform="translate(37 535.5)" fill="none" stroke="#ffed00" stroke-width="2"/></g><g transform="translate(1830.005 553.5)"><line x2="1846" y2="9" transform="translate(37 535.5)" fill="none" stroke="#ffed00" stroke-width="2"/></g><g transform="translate(-36.995 587.5)"><line x2="1846" y2="9" transform="translate(37 535.5)" fill="none" stroke="#ffed00" stroke-width="2"/></g><g transform="translate(1830.005 587.5)"><line x2="1846" y2="9" transform="translate(37 535.5)" fill="none" stroke="#ffed00" stroke-width="2"/></g><g transform="translate(-36.995 621.5)"><line x2="1846" y2="9" transform="translate(37 535.5)" fill="none" stroke="#ffed00" stroke-width="2"/></g><g transform="translate(1830.005 621.5)"><line x2="1846" y2="9" transform="translate(37 535.5)" fill="none" stroke="#ffed00" stroke-width="2"/></g><g transform="translate(-36.995 655.5)"><line x2="1846" y2="9" transform="translate(37 535.5)" fill="none" stroke="#ffed00" stroke-width="2"/></g><g transform="translate(1830.005 655.5)"><line x2="1846" y2="9" transform="translate(37 535.5)" fill="none" stroke="#ffed00" stroke-width="2"/></g><g transform="translate(-36.995 689.5)"><line x2="1846" y2="9" transform="translate(37 535.5)" fill="none" stroke="#ffed00" stroke-width="2"/></g><g transform="translate(1830.005 689.5)"><line x2="1846" y2="9" transform="translate(37 535.5)" fill="none" stroke="#ffed00" stroke-width="2"/></g><g transform="translate(-36.995 723.5)"><line x2="1846" y2="9" transform="translate(37 535.5)" fill="none" stroke="#ffed00" stroke-width="2"/></g><g transform="translate(1830.005 723.5)"><line x2="1846" y2="9" transform="translate(37 535.5)" fill="none" stroke="#ffed00" stroke-width="2"/></g><g transform="translate(-36.995 757.5)"><line x2="1846" y2="9" transform="translate(37 535.5)" fill="none" stroke="#ffed00" stroke-width="2"/></g><g transform="translate(1830.005 757.5)"><line x2="1846" y2="9" transform="translate(37 535.5)" fill="none" stroke="#ffed00" stroke-width="2"/></g><g transform="translate(-36.995 791.5)"><line x2="1846" y2="9" transform="translate(37 535.5)" fill="none" stroke="#ffed00" stroke-width="2"/></g><g transform="translate(1830.005 791.5)"><line x2="1846" y2="9" transform="translate(37 535.5)" fill="none" stroke="#ffed00" stroke-width="2"/></g><g transform="translate(-36.995 825.5)"><line x2="1846" y2="9" transform="translate(37 535.5)" fill="none" stroke="#ffed00" stroke-width="2"/></g><g transform="translate(1830.005 825.5)"><line x2="1846" y2="9" transform="translate(37 535.5)" fill="none" stroke="#ffed00" stroke-width="2"/></g><g transform="translate(-36.995 859.5)"><line x2="1846" y2="9" transform="translate(37 535.5)" fill="none" stroke="#ffed00" stroke-width="2"/></g><g transform="translate(1830.005 859.5)"><line x2="1846" y2="9" transform="translate(37 535.5)" fill="none" stroke="#ffed00" stroke-width="2"/></g><g transform="translate(-36.995 893.5)"><line x2="1846" y2="9" transform="translate(37 535.5)" fill="none" stroke="#ffed00" stroke-width="2"/></g><g transform="translate(1830.005 893.5)"><line x2="1846" y2="9" transform="translate(37 535.5)" fill="none" stroke="#ffed00" stroke-width="2"/></g><g transform="translate(-36.995 927.5)"><line x2="1846" y2="9" transform="translate(37 535.5)" fill="none" stroke="#ffed00" stroke-width="2"/></g><g transform="translate(1830.005 927.5)"><line x2="1846" y2="9" transform="translate(37 535.5)" fill="none" stroke="#ffed00" stroke-width="2"/></g><g transform="translate(-36.995 961.5)"><line x2="1846" y2="9" transform="translate(37 535.5)" fill="none" stroke="#ffed00" stroke-width="2"/></g><g transform="translate(1830.005 961.5)"><line x2="1846" y2="9" transform="translate(37 535.5)" fill="none" stroke="#ffed00" stroke-width="2"/></g><g transform="translate(-36.995 995.5)"><line x2="1846" y2="9" transform="translate(37 535.5)" fill="none" stroke="#ffed00" stroke-width="2"/></g><g transform="translate(1830.005 995.5)"><line x2="1846" y2="9" transform="translate(37 535.5)" fill="none" stroke="#ffed00" stroke-width="2"/></g><g transform="translate(-36.995 1029.5)"><line x2="1846" y2="9" transform="translate(37 535.5)" fill="none" stroke="#ffed00" stroke-width="2"/></g><g transform="translate(1830.005 1029.5)"><line x2="1846" y2="9" transform="translate(37 535.5)" fill="none" stroke="#ffed00" stroke-width="2"/></g><g transform="translate(-36.995 1063.5)"><line x2="1846" y2="9" transform="translate(37 535.5)" fill="none" stroke="#ffed00" stroke-width="2"/></g><g transform="translate(1830.005 1063.5)"><line x2="1846" y2="9" transform="translate(37 535.5)" fill="none" stroke="#ffed00" stroke-width="2"/></g><g transform="translate(-36.995 1097.5)"><line x2="1846" y2="9" transform="translate(37 535.5)" fill="none" stroke="#ffed00" stroke-width="2"/></g><g transform="translate(1830.005 1097.5)"><line x2="1846" y2="9" transform="translate(37 535.5)" fill="none" stroke="#ffed00" stroke-width="2"/></g><g transform="translate(-36.995 1131.5)"><line x2="1846" y2="9" transform="translate(37 535.5)" fill="none" stroke="#ffed00" stroke-width="2"/></g><g transform="translate(1830.005 1131.5)"><line x2="1846" y2="9" transform="translate(37 535.5)" fill="none" stroke="#ffed00" stroke-width="2"/></g><g transform="translate(-36.995 1165.5)"><line x2="1846" y2="9" transform="translate(37 535.5)" fill="none" stroke="#ffed00" stroke-width="2"/></g><g transform="translate(1830.005 1165.5)"><line x2="1846" y2="9" transform="translate(37 535.5)" fill="none" stroke="#ffed00" stroke-width="2"/></g><g transform="translate(-36.995 1199.5)"><line x2="1846" y2="9" transform="translate(37 535.5)" fill="none" stroke="#ffed00" stroke-width="2"/></g><g transform="translate(1830.005 1199.5)"><line x2="1846" y2="9" transform="translate(37 535.5)" fill="none" stroke="#ffed00" stroke-width="2"/></g><g transform="translate(-36.995 1233.5)"><line x2="1846" y2="9" transform="translate(37 535.5)" fill="none" stroke="#ffed00" stroke-width="2"/></g><g transform="translate(1830.005 1233.5)"><line x2="1846" y2="9" transform="translate(37 535.5)" fill="none" stroke="#ffed00" stroke-width="2"/></g><g transform="translate(-36.995 1267.5)"><line x2="1846" y2="9" transform="translate(37 535.5)" fill="none" stroke="#ffed00" stroke-width="2"/></g><g transform="translate(1830.005 1267.5)"><line x2="1846" y2="9" transform="translate(37 535.5)" fill="none" stroke="#ffed00" stroke-width="2"/></g><g transform="translate(-36.995 1301.5)"><line x2="1846" y2="9" transform="translate(37 535.5)" fill="none" stroke="#ffed00" stroke-width="2"/></g><g transform="translate(1830.005 1301.5)"><line x2="1846" y2="9" transform="translate(37 535.5)" fill="none" stroke="#ffed00" stroke-width="2"/></g><g transform="translate(-36.995 1335.5)"><line x2="1846" y2="9" transform="translate(37 535.5)" fill="none" stroke="#ffed00" stroke-width="2"/></g><g transform="translate(1830.005 1335.5)"><line x2="1846" y2="9" transform="translate(37 535.5)" fill="none" stroke="#ffed00" stroke-width="2"/></g><g transform="translate(-36.995 1369.5)"><line x2="1846" y2="9" transform="translate(37 535.5)" fill="none" stroke="#ffed00" stroke-width="2"/></g><g transform="translate(1830.005 1369.5)"><line x2="1846" y2="9" transform="translate(37 535.5)" fill="none" stroke="#ffed00" stroke-width="2"/></g><g transform="translate(-36.995 1403.5)"><line x2="1846" y2="9" transform="translate(37 535.5)" fill="none" stroke="#ffed00" stroke-width="2"/></g><g transform="translate(1830.005 1403.5)"><line x2="1846" y2="9" transform="translate(37 535.5)" fill="none" stroke="#ffed00" stroke-width="2"/></g><g transform="translate(-36.995 1437.5)"><line x2="1846" y2="9" transform="translate(37 535.5)" fill="none" stroke="#ffed00" stroke-width="2"/></g><g transform="translate(1830.005 1437.5)"><line x2="1846" y2="9" transform="translate(37 535.5)" fill="none" stroke="#ffed00" stroke-width="2"/></g><g transform="translate(-36.995 1471.5)"><line x2="1846" y2="9" transform="translate(37 535.5)" fill="none" stroke="#ffed00" stroke-width="2"/></g><g transform="translate(1830.005 1471.5)"><line x2="1846" y2="9" transform="translate(37 535.5)" fill="none" stroke="#ffed00" stroke-width="2"/></g><g transform="translate(-36.995 1505.5)"><line x2="1846" y2="9" transform="translate(37 535.5)" fill="none" stroke="#ffed00" stroke-width="2"/></g><g transform="translate(1830.005 1505.5)"><line x2="1846" y2="9" transform="translate(37 535.5)" fill="none" stroke="#ffed00" stroke-width="2"/></g><g transform="translate(-36.995 1539.5)"><line x2="1846" y2="9" transform="translate(37 535.5)" fill="none" stroke="#ffed00" stroke-width="2"/></g><g transform="translate(1830.005 1539.5)"><line x2="1846" y2="9" transform="translate(37 535.5)" fill="none" stroke="#ffed00" stroke-width="2"/></g><g transform="translate(-36.995 1573.5)"><line x2="1846" y2="9" transform="translate(37 535.5)" fill="none" stroke="#ffed00" stroke-width="2"/></g><g transform="translate(1830.005 1573.5)"><line x2="1846" y2="9" transform="translate(37 535.5)" fill="none" stroke="#ffed00" stroke-width="2"/></g><g transform="translate(-36.995 1607.5)"><line x2="1846" y2="9" transform="translate(37 535.5)" fill="none" stroke="#ffed00" stroke-width="2"/></g><g transform="translate(1830.005 1607.5)"><line x2="1846" y2="9" transform="translate(37 535.5)" fill="none" stroke="#ffed00" stroke-width="2"/></g></g></g></svg>