<svg xmlns="http://www.w3.org/2000/svg" width="78.598" height="28" viewBox="0 0 78.598 28"><g transform="translate(-33.402 -20)"><g transform="translate(-0.799 20)"><path d="M38.549,28,35.37,21.426A11.7,11.7,0,0,1,38.424,7.34,70.563,70.563,0,0,0,45.547.614L46.107,0l1.3,1.721a22.394,22.394,0,0,1,3.559,6.67Z" fill="#00aa95"/><path d="M133.124,113.351l-.423-2.117c-2.093,4.933-7.461,7.554-10.538,10.958a83.385,83.385,0,0,0-8.456,10.958h3.186C131.053,133.151,135.173,123.594,133.124,113.351Z" transform="translate(-75.158 -105.151)" fill="#00cc76"/><path d="M132.7,111.234l-.772.309c-1.9.761-3.84,1.421-5.8,2h0q-1.756.518-3.537.955a11.7,11.7,0,0,0-8.882,11.352v7.3S126.947,124.794,132.7,111.234Z" transform="translate(-75.157 -105.151)" fill="#a5e887"/></g><text transform="translate(61 42)" fill="#88ba74" font-size="16" font-family="Poppins-Light, Poppins" font-weight="300" letter-spacing="0.01em"><tspan x="0" y="0">aPlant</tspan></text></g></svg>